<svg xmlns="http://www.w3.org/2000/svg" viewBox="0 0 26 26"><path d="M11 0C9.34375 0 8 1.34375 8 3L8 11L4.75 11C3.339844 11 3.042969 11.226563 4.25 12.4375L10.84375 19.03125C13.042969 21.230469 13.015625 21.238281 15.21875 19.03125L21.78125 12.4375C22.988281 11.226563 22.585938 11 21.3125 11L18 11L18 3C18 1.34375 16.65625 0 15 0 Z M 0 19L0 23C0 24.65625 1.34375 26 3 26L23 26C24.65625 26 26 24.65625 26 23L26 19L24 19L24 23C24 23.550781 23.550781 24 23 24L3 24C2.449219 24 2 23.550781 2 23L2 19Z"/></svg>